<?xml version="1.0" standalone="no"?>
<!DOCTYPE svg PUBLIC "-//W3C//DTD SVG 20010904//EN"
 "http://www.w3.org/TR/2001/REC-SVG-20010904/DTD/svg10.dtd">
<svg version="1.0" xmlns="http://www.w3.org/2000/svg"
 width="512.000000pt" height="512.000000pt" viewBox="0 0 512.000000 512.000000"
 preserveAspectRatio="xMidYMid meet">

<g transform="translate(0.000000,512.000000) scale(0.100000,-0.100000)"
fill="#000000" stroke="none">
<path d="M0 2560 l0 -2560 2560 0 2560 0 0 2560 0 2560 -2560 0 -2560 0 0
-2560z m2302 1400 c11 -17 24 -20 93 -20 67 0 82 -3 92 -19 7 -11 28 -20 53
-24 24 -3 50 -14 61 -26 11 -12 26 -21 34 -21 8 0 15 -9 15 -20 0 -13 7 -20
18 -20 24 0 112 -87 112 -111 0 -12 7 -19 19 -19 21 0 31 -19 31 -60 0 -19 6
-29 20 -33 17 -4 20 -14 20 -64 0 -47 4 -61 20 -71 19 -11 20 -23 20 -182 0
-159 -1 -170 -20 -180 -16 -9 -20 -21 -20 -65 0 -44 -4 -57 -20 -67 -11 -7
-20 -24 -20 -38 0 -30 -9 -44 -32 -53 -10 -3 -18 -15 -18 -25 0 -11 -7 -25
-16 -33 -8 -7 -22 -25 -30 -41 -11 -22 -22 -28 -47 -29 l-32 -1 34 -12 c19 -7
37 -18 39 -24 2 -7 19 -12 37 -12 32 0 65 -21 65 -41 0 -5 16 -9 36 -9 27 0
37 -5 41 -20 3 -11 10 -20 16 -20 14 0 77 -62 77 -76 0 -7 9 -14 20 -17 15 -4
20 -14 20 -39 0 -25 6 -36 23 -43 15 -7 23 -20 25 -45 2 -20 12 -40 23 -48 16
-11 19 -26 19 -109 0 -78 3 -98 17 -108 11 -8 18 -32 21 -73 4 -53 2 -62 -17
-74 -19 -11 -21 -22 -21 -94 0 -64 -4 -86 -19 -105 -10 -13 -21 -41 -25 -62
-4 -21 -14 -41 -22 -44 -9 -3 -20 -16 -25 -29 -4 -13 -15 -24 -24 -24 -10 0
-15 -10 -15 -28 0 -16 -10 -37 -22 -50 -29 -27 -43 -41 -70 -69 -12 -13 -34
-23 -49 -23 -19 0 -30 -6 -34 -20 -3 -11 -11 -20 -17 -20 -6 0 -21 -11 -34
-25 -13 -14 -34 -25 -49 -25 -14 0 -34 -9 -45 -20 -15 -15 -33 -20 -73 -20
-29 0 -58 -5 -65 -12 -9 -9 -15 -9 -24 0 -18 18 -42 15 -56 -8 -12 -20 -23
-20 -662 -20 l-650 0 0 1348 c0 742 3 1352 7 1355 3 4 260 7 570 7 552 0 563
0 575 -20z m1522 -1769 c12 -13 35 -20 76 -23 44 -3 66 -10 83 -26 13 -12 28
-22 33 -22 16 0 142 -128 149 -151 4 -12 16 -30 26 -40 14 -14 19 -33 19 -72
0 -41 5 -58 20 -72 16 -15 20 -31 20 -86 0 -58 -3 -70 -20 -79 -16 -9 -20 -21
-20 -65 0 -44 -4 -57 -20 -67 -11 -7 -20 -21 -20 -31 0 -26 -18 -57 -34 -57
-8 0 -16 -9 -19 -20 -3 -11 -11 -20 -19 -20 -7 0 -18 -10 -23 -22 -7 -17 -20
-24 -47 -26 -30 -3 -38 -7 -38 -23 0 -17 -7 -19 -59 -19 -49 0 -61 -3 -73 -22
-12 -18 -27 -23 -81 -26 -82 -5 -113 2 -120 28 -4 17 -13 20 -66 20 -54 0 -61
2 -61 20 0 17 -7 20 -41 20 -32 0 -42 4 -46 20 -3 11 -12 20 -19 20 -8 0 -19
11 -24 25 -5 14 -16 25 -24 25 -16 0 -26 21 -26 55 0 15 -7 26 -20 30 -17 5
-20 15 -20 65 0 49 -3 58 -20 63 -18 5 -20 14 -20 96 0 80 2 92 20 103 16 10
20 24 20 71 0 49 3 60 19 64 13 3 21 17 25 44 3 21 12 39 19 39 6 0 30 21 51
45 29 34 46 45 68 45 18 0 31 6 35 18 10 26 23 32 78 32 39 0 53 4 63 20 17
28 131 29 156 1z"/>
<path d="M1853 3411 c-23 -19 -23 -23 -23 -242 l0 -223 28 -24 c23 -20 35 -23
79 -20 32 3 61 12 73 23 13 11 41 20 75 23 42 3 56 9 60 23 4 11 15 19 25 19
9 0 20 9 23 20 3 11 12 20 21 20 12 0 16 10 16 35 0 24 6 37 20 45 15 8 20 21
20 55 0 34 -5 47 -20 55 -14 7 -20 21 -20 44 0 25 -5 35 -20 39 -11 3 -20 12
-20 20 0 8 -9 17 -21 20 -11 3 -23 15 -26 26 -5 18 -13 21 -63 21 -44 0 -61 4
-75 20 -25 27 -120 28 -152 1z"/>
<path d="M1853 2371 c-23 -19 -23 -22 -23 -263 0 -305 -10 -288 167 -288 105
0 122 2 137 19 12 13 38 22 79 26 33 4 67 14 75 22 8 8 27 16 42 20 16 3 30
13 33 24 3 10 12 19 21 19 9 0 16 8 16 19 0 10 9 30 20 44 15 19 20 40 20 91
0 53 -4 70 -20 86 -11 11 -20 31 -20 45 0 16 -6 25 -16 25 -9 0 -18 8 -21 19
-3 13 -17 21 -45 25 -28 5 -42 12 -45 26 -5 18 -14 20 -79 20 -63 0 -76 3 -86
20 -12 18 -23 20 -123 20 -93 -1 -114 -4 -132 -19z"/>
</g>
</svg>
