<?xml version="1.0" encoding="UTF-8" standalone="no"?>
<svg
   version="1.0"
   width="512.000000pt"
   height="512.000000pt"
   viewBox="0 0 512.000000 512.000000"
   preserveAspectRatio="xMidYMid meet"
   id="svg155"
   sodipodi:docname="favicon.svg"
   inkscape:version="1.1.2 (0a00cf5339, 2022-02-04)"
   xmlns:inkscape="http://www.inkscape.org/namespaces/inkscape"
   xmlns:sodipodi="http://sodipodi.sourceforge.net/DTD/sodipodi-0.dtd"
   xmlns="http://www.w3.org/2000/svg"
   xmlns:svg="http://www.w3.org/2000/svg">
  <defs
     id="defs159" />
  <sodipodi:namedview
     id="namedview157"
     pagecolor="#ffffff"
     bordercolor="#666666"
     borderopacity="1.0"
     inkscape:pageshadow="2"
     inkscape:pageopacity="0.0"
     inkscape:pagecheckerboard="0"
     inkscape:document-units="pt"
     showgrid="false"
     inkscape:zoom="0.37719727"
     inkscape:cx="389.7165"
     inkscape:cy="383.08867"
     inkscape:window-width="1366"
     inkscape:window-height="732"
     inkscape:window-x="0"
     inkscape:window-y="0"
     inkscape:window-maximized="1"
     inkscape:current-layer="svg155" />
  <g
     transform="translate(0.000000,512.000000) scale(0.100000,-0.100000)"
     fill="#000000"
     stroke="none"
     id="g153">
    <path
       d="M0 2560 l0 -2560 2560 0 2560 0 0 2560 0 2560 -2560 0 -2560 0 0 -2560z m2302 1400 c11 -17 24 -20 93 -20 67 0 82 -3 92 -19 7 -11 28 -20 53 -24 24 -3 50 -14 61 -26 11 -12 26 -21 34 -21 8 0 15 -9 15 -20 0 -13 7 -20 18 -20 24 0 112 -87 112 -111 0 -12 7 -19 19 -19 21 0 31 -19 31 -60 0 -19 6 -29 20 -33 17 -4 20 -14 20 -64 0 -47 4 -61 20 -71 19 -11 20 -23 20 -182 0 -159 -1 -170 -20 -180 -16 -9 -20 -21 -20 -65 0 -44 -4 -57 -20 -67 -11 -7 -20 -24 -20 -38 0 -30 -9 -44 -32 -53 -10 -3 -18 -15 -18 -25 0 -11 -7 -25 -16 -33 -8 -7 -22 -25 -30 -41 -11 -22 -22 -28 -47 -29 l-32 -1 34 -12 c19 -7 37 -18 39 -24 2 -7 19 -12 37 -12 32 0 65 -21 65 -41 0 -5 16 -9 36 -9 27 0 37 -5 41 -20 3 -11 10 -20 16 -20 14 0 77 -62 77 -76 0 -7 9 -14 20 -17 15 -4 20 -14 20 -39 0 -25 6 -36 23 -43 15 -7 23 -20 25 -45 2 -20 12 -40 23 -48 16 -11 19 -26 19 -109 0 -78 3 -98 17 -108 11 -8 18 -32 21 -73 4 -53 2 -62 -17 -74 -19 -11 -21 -22 -21 -94 0 -64 -4 -86 -19 -105 -10 -13 -21 -41 -25 -62 -4 -21 -14 -41 -22 -44 -9 -3 -20 -16 -25 -29 -4 -13 -15 -24 -24 -24 -10 0 -15 -10 -15 -28 0 -16 -10 -37 -22 -50 -29 -27 -43 -41 -70 -69 -12 -13 -34 -23 -49 -23 -19 0 -30 -6 -34 -20 -3 -11 -11 -20 -17 -20 -6 0 -21 -11 -34 -25 -13 -14 -34 -25 -49 -25 -14 0 -34 -9 -45 -20 -15 -15 -33 -20 -73 -20 -29 0 -58 -5 -65 -12 -9 -9 -15 -9 -24 0 -18 18 -42 15 -56 -8 -12 -20 -23 -20 -662 -20 l-650 0 0 1348 c0 742 3 1352 7 1355 3 4 260 7 570 7 552 0 563 0 575 -20z m1522 -1769 c12 -13 35 -20 76 -23 44 -3 66 -10 83 -26 13 -12 28 -22 33 -22 16 0 142 -128 149 -151 4 -12 16 -30 26 -40 14 -14 19 -33 19 -72 0 -41 5 -58 20 -72 16 -15 20 -31 20 -86 0 -58 -3 -70 -20 -79 -16 -9 -20 -21 -20 -65 0 -44 -4 -57 -20 -67 -11 -7 -20 -21 -20 -31 0 -26 -18 -57 -34 -57 -8 0 -16 -9 -19 -20 -3 -11 -11 -20 -19 -20 -7 0 -18 -10 -23 -22 -7 -17 -20 -24 -47 -26 -30 -3 -38 -7 -38 -23 0 -17 -7 -19 -59 -19 -49 0 -61 -3 -73 -22 -12 -18 -27 -23 -81 -26 -82 -5 -113 2 -120 28 -4 17 -13 20 -66 20 -54 0 -61 2 -61 20 0 17 -7 20 -41 20 -32 0 -42 4 -46 20 -3 11 -12 20 -19 20 -8 0 -19 11 -24 25 -5 14 -16 25 -24 25 -16 0 -26 21 -26 55 0 15 -7 26 -20 30 -17 5 -20 15 -20 65 0 49 -3 58 -20 63 -18 5 -20 14 -20 96 0 80 2 92 20 103 16 10 20 24 20 71 0 49 3 60 19 64 13 3 21 17 25 44 3 21 12 39 19 39 6 0 30 21 51 45 29 34 46 45 68 45 18 0 31 6 35 18 10 26 23 32 78 32 39 0 53 4 63 20 17 28 131 29 156 1z"
       id="path147" />
    <path
       d="M1853 3411 c-23 -19 -23 -23 -23 -242 l0 -223 28 -24 c23 -20 35 -23 79 -20 32 3 61 12 73 23 13 11 41 20 75 23 42 3 56 9 60 23 4 11 15 19 25 19 9 0 20 9 23 20 3 11 12 20 21 20 12 0 16 10 16 35 0 24 6 37 20 45 15 8 20 21 20 55 0 34 -5 47 -20 55 -14 7 -20 21 -20 44 0 25 -5 35 -20 39 -11 3 -20 12 -20 20 0 8 -9 17 -21 20 -11 3 -23 15 -26 26 -5 18 -13 21 -63 21 -44 0 -61 4 -75 20 -25 27 -120 28 -152 1z"
       id="path149" />
    <path
       d="M1853 2371 c-23 -19 -23 -22 -23 -263 0 -305 -10 -288 167 -288 105 0 122 2 137 19 12 13 38 22 79 26 33 4 67 14 75 22 8 8 27 16 42 20 16 3 30 13 33 24 3 10 12 19 21 19 9 0 16 8 16 19 0 10 9 30 20 44 15 19 20 40 20 91 0 53 -4 70 -20 86 -11 11 -20 31 -20 45 0 16 -6 25 -16 25 -9 0 -18 8 -21 19 -3 13 -17 21 -45 25 -28 5 -42 12 -45 26 -5 18 -14 20 -79 20 -63 0 -76 3 -86 20 -12 18 -23 20 -123 20 -93 -1 -114 -4 -132 -19z"
       id="path151" />
  </g>
  <path
     style="fill:#00ffff;stroke-width:1.32557"
     d="m 491.78511,518.72886 c -1.09359,-0.46826 -2.7678,-1.95013 -3.72047,-3.29303 -1.28259,-1.80797 -3.42982,-2.44166 -8.27356,-2.44166 -5.10583,0 -6.90478,-0.58182 -8.19709,-2.65113 -0.97852,-1.56686 -3.09126,-2.65113 -5.16582,-2.65113 -4.73892,0 -17.72243,-12.5157 -18.99526,-18.31084 -0.50833,-2.3144 -1.85218,-4.7273 -2.98633,-5.36201 -1.31962,-0.73849 -2.28802,-3.72435 -2.68955,-8.29268 -0.3899,-4.43595 -1.45195,-7.78761 -2.80519,-8.8527 -3.10407,-2.44311 -3.11978,-21.45676 -0.0206,-24.98953 1.18639,-1.3524 2.43166,-5.49369 2.76725,-9.20286 0.4122,-4.55589 1.54018,-7.67396 3.47657,-9.61036 1.57652,-1.57652 2.8664,-4.00155 2.8664,-5.38896 0,-3.21834 12.86002,-15.81811 17.23237,-16.88364 1.82265,-0.44418 4.68019,-2.22454 6.35008,-3.95636 2.33755,-2.42424 4.44862,-3.14877 9.17459,-3.14877 3.79555,0 7.04311,-0.81873 8.50874,-2.14511 3.85274,-3.48668 13.4592,-3.91881 19.31807,-0.869 2.76743,1.44058 8.01421,3.0578 11.65952,3.59383 15.76599,2.31834 40.41599,27.39923 40.43851,41.1454 0.005,3.08976 1.11639,7.005 2.6424,9.30919 3.70031,5.58729 3.70031,17.86032 0,21.20906 -1.93325,1.74956 -2.65114,4.0827 -2.65114,8.61618 0,4.53348 -0.71789,6.86662 -2.65113,8.61618 -1.45812,1.31958 -2.65113,3.52174 -2.65113,4.89367 0,3.8259 -14.56972,18.10261 -19.47542,19.08375 -2.50606,0.50121 -4.40985,1.82383 -4.80605,3.33891 -0.53918,2.06182 -1.90312,2.50891 -7.65398,2.50891 -5.19951,0 -7.73129,0.689 -9.8517,2.68101 -2.04949,1.92541 -5.24911,2.85351 -11.35274,3.29304 -4.67442,0.33662 -9.3937,0.22891 -10.4873,-0.23936 z"
     id="path315"
     transform="scale(0.75)" />
  <path
     style="fill:#00ffff;stroke-width:1.32557"
     d="m 154.00399,334.22441 c 0.23347,-98.40219 0.92149,-179.40998 1.52893,-180.01729 0.60745,-0.60731 34.35248,-1.10421 74.98897,-1.10421 68.5987,0 74.05049,0.16596 76.20447,2.31974 1.7243,1.72413 4.48992,2.31974 10.77132,2.31974 6.46904,0 9.91326,0.7773 14.68397,3.31392 3.42794,1.82265 7.05132,3.31392 8.05197,3.31392 2.7342,0 12.36703,6.73651 12.36703,8.64862 0,0.91768 1.40605,2.0214 3.12456,2.45272 1.71851,0.43132 5.59378,3.62763 8.61172,7.10292 3.01793,3.47529 6.98042,7.83244 8.80553,9.68254 1.86331,1.88883 3.31838,4.90741 3.31838,6.88406 0,1.93613 1.10828,4.29969 2.46285,5.25235 1.74236,1.22541 2.64341,3.92116 3.08005,9.21494 0.37447,4.5401 1.4911,8.35673 2.8394,9.70504 1.89144,1.89144 2.22223,5.33501 2.22223,23.13378 0,19.00891 -0.24121,21.18967 -2.65113,23.96833 -1.84013,2.12168 -2.65113,4.95942 -2.65113,9.27635 0,4.5361 -0.71759,6.86896 -2.65114,8.6188 -1.45812,1.31959 -2.65113,3.69048 -2.65113,5.26866 0,1.57818 -1.49126,4.16606 -3.31391,5.75084 -1.82266,1.58478 -3.31392,3.52166 -3.31392,4.30419 0,0.78252 -1.61626,3.61987 -3.59169,6.3052 -1.97542,2.68534 -3.73468,5.1007 -3.90943,5.36749 -0.17476,0.26678 -2.28665,0.91329 -4.6931,1.43669 l -4.37536,0.95163 4.80905,2.07337 c 2.64498,1.14035 5.21533,2.73074 5.71189,3.53419 0.49656,0.80344 2.68562,1.46081 4.8646,1.46081 2.52317,0 5.07698,1.20335 7.033,3.31392 1.68918,1.82265 4.41232,3.31392 6.0514,3.31392 3.9414,0 22.56436,18.48214 22.56436,22.39373 0,1.54525 1.49127,4.10619 3.31392,5.69097 1.82265,1.58478 3.31392,4.18466 3.31392,5.77752 0,1.59286 1.11524,4.31869 2.47831,6.05739 1.87679,2.39399 2.61617,6.07067 3.04624,15.14792 0.3983,8.40661 1.24172,12.94863 2.82394,15.20758 3.07412,4.38891 3.11267,16.60113 0.0578,18.31072 -1.68358,0.94217 -2.34714,3.82828 -2.8343,12.32736 -0.41538,7.24691 -1.49235,12.70006 -3.10404,15.71701 -1.35738,2.54093 -2.46797,5.58547 -2.46797,6.76567 0,1.99943 -3.01671,6.05886 -9.30502,12.5213 -1.4438,1.48376 -2.62507,3.75636 -2.62507,5.05022 0,3.95156 -12.99025,16.60508 -18.01465,17.54766 -2.43627,0.45704 -4.76625,1.81231 -5.1777,3.01169 -0.78749,2.29548 -11.21934,9.47131 -13.7689,9.47131 -0.81938,0 -3.71568,1.19301 -6.43623,2.65114 -2.72054,1.45812 -7.37112,2.65113 -10.33461,2.65113 -2.9635,0 -6.03665,0.64848 -6.82924,1.44106 -1.03772,1.03772 -1.69036,1.03772 -2.33169,0 -1.35402,-2.19084 -6.17965,-1.72247 -9.05271,0.87868 -2.37443,2.14971 -8.82586,2.34929 -88.01623,2.72281 l -85.45399,0.40305 z m 130.99699,103.87145 c 1.21073,-1.0957 5.60005,-2.62046 9.75405,-3.38837 7.85746,-1.45253 20.72976,-7.15362 20.72976,-9.18113 0,-0.64156 1.19301,-1.54512 2.65113,-2.00791 1.45813,-0.4628 2.65114,-1.69816 2.65114,-2.74526 0,-1.04711 1.193,-4.12973 2.65113,-6.85028 3.58153,-6.68235 3.58153,-18.1357 0,-23.54362 -1.44851,-2.18719 -2.6376,-4.81825 -2.6424,-5.84681 -0.0119,-2.54217 -7.87833,-9.3972 -10.78372,-9.3972 -1.28925,0 -3.95318,-1.49127 -5.91986,-3.31392 -2.98068,-2.7624 -4.88755,-3.31392 -11.45792,-3.31392 -5.87499,0 -8.7404,-0.67509 -11.25252,-2.65113 -2.81661,-2.21555 -5.37753,-2.65113 -15.58668,-2.65113 -14.12875,0 -20.26892,1.67146 -21.30501,5.79956 -0.39805,1.58595 -0.54358,17.38266 -0.32341,35.10381 0.37412,30.11122 0.56875,32.34333 2.97342,34.09989 3.78811,2.76713 34.78067,2.67498 37.86089,-0.11254 z M 267.78807,293.6007 c 2.17508,-1.12477 6.91778,-2.60698 10.53935,-3.2938 3.62156,-0.68681 7.76481,-2.31169 9.20721,-3.61084 9.057,-8.15749 10.7178,-10.09592 10.7178,-12.50945 0,-1.47957 1.19301,-4.2068 2.65113,-6.0605 1.45812,-1.8537 2.65113,-5.29725 2.65113,-7.65232 0,-2.35508 -1.19301,-5.79862 -2.65113,-7.65233 -1.45812,-1.8537 -2.65113,-4.42305 -2.65113,-5.70966 0,-1.28662 -3.15976,-5.42429 -7.02169,-9.19483 -6.11189,-5.96727 -7.93418,-6.97658 -14.06429,-7.78976 -3.87343,-0.51383 -8.53584,-1.91265 -10.36091,-3.10848 -4.26977,-2.79766 -15.18596,-2.68994 -19.5863,0.19327 l -3.31503,2.17209 v 31.13974 31.13974 l 4.30809,2.70391 c 4.8899,3.06909 12.75368,2.76107 19.57577,-0.76678 z"
     id="path391"
     transform="scale(0.75)" />
  <path
     style="fill:#ffffff;stroke-width:1.32557"
     d="m 489.95926,515.82486 c -1.35721,-1.4997 -4.89756,-2.78671 -9.00343,-3.27299 -3.72167,-0.44078 -7.72875,-1.66811 -8.90462,-2.72741 -1.17587,-1.0593 -3.82674,-2.34754 -5.89083,-2.86276 -4.34437,-1.0844 -16.14272,-12.36381 -17.54103,-16.76952 -0.52287,-1.6474 -2.0004,-4.49807 -3.2834,-6.33483 -1.28301,-1.83675 -2.68483,-5.79577 -3.11517,-8.79782 -0.43033,-3.00205 -1.67908,-7.17759 -2.77499,-9.27897 -2.55314,-4.89559 -2.5867,-18.07901 -0.0585,-22.96808 1.07274,-2.07445 2.32516,-6.36949 2.78316,-9.54453 0.458,-3.17504 1.88245,-7.2756 3.16546,-9.11236 1.283,-1.83675 2.73305,-4.60083 3.22232,-6.1424 1.10796,-3.49086 13.05665,-14.50591 20.92998,-19.29457 3.24709,-1.97492 8.54835,-3.99652 11.78059,-4.49244 3.23223,-0.49593 7.48756,-1.71349 9.45627,-2.70568 5.07837,-2.55941 11.79518,-2.24112 22.02063,1.04348 17.04818,5.47619 21.8624,8.17706 31.54763,17.6988 10.27869,10.10518 14.1622,16.47367 16.20724,26.57787 0.73038,3.60871 2.29813,9.18565 3.48387,12.3932 2.24942,6.08488 1.7999,11.73206 -1.32802,16.68328 -0.92792,1.46881 -2.10765,5.35484 -2.62161,8.63562 -0.51396,3.28078 -1.66605,6.85981 -2.5602,7.9534 -0.89415,1.09359 -2.3993,3.94258 -3.34478,6.3311 -2.02958,5.12721 -13.22981,15.58527 -19.49472,18.20291 -2.42474,1.01312 -4.40861,2.43243 -4.40861,3.15402 0,0.72159 -2.8334,1.68227 -6.29644,2.13483 -3.46304,0.45257 -8.7478,1.98038 -11.7439,3.39514 -7.31504,3.45417 -19.1436,3.50776 -22.22694,0.10071 z"
     id="path467"
     transform="scale(0.75)" />
  <path
     style="fill:#ffffff;stroke-width:2.65113"
     d="m 155.60167,334.84097 c 1.12738,-124.18429 2.47949,-177.70102 4.52537,-179.11491 4.29782,-2.97017 141.12857,-0.58636 157.04537,2.73598 30.39236,6.34386 55.61698,28.25308 63.41606,55.08097 5.70594,19.62773 5.7264,49.26886 0.0452,65.53472 -5.53245,15.8401 -19.22839,36.40706 -24.24418,36.40706 -7.85853,0 -3.27546,4.29452 11.29583,10.58465 19.10688,8.24805 27.66899,15.48633 36.84989,31.15235 7.70598,13.14925 17.32553,53.6984 14.13357,59.5771 -1.01703,1.8731 -2.69087,9.66974 -3.71965,17.32586 -3.35506,24.96829 -28.78023,55.59391 -56.58111,68.15416 -13.84521,6.25518 -27.90425,7.25935 -118.98922,8.49876 l -85.38491,1.16186 z m 143.27127,100.2576 c 17.1241,-4.79861 24.83213,-12.80895 26.49146,-27.53046 2.69176,-23.88121 -7.49635,-35.06841 -37.7165,-41.41514 -8.74874,-1.83737 -21.87185,-2.95403 -29.16246,-2.48146 l -13.25567,0.85923 v 37.11586 37.11586 l 10.60453,1.34887 c 11.62588,1.47877 25.73918,-0.16517 43.03864,-5.01276 z M 275.7178,292.7167 c 15.07913,-5.22393 22.18861,-11.85435 26.4029,-24.62377 3.79782,-11.50752 0.56422,-20.60702 -11.24096,-31.63256 -8.46074,-7.90198 -32.00721,-14.28514 -40.61842,-11.01116 -6.2354,2.37069 -6.35711,3.04423 -6.35711,35.17988 0,18.01961 0.79534,33.55827 1.76742,34.53035 3.04578,3.04578 17.62455,1.86054 30.04617,-2.44274 z"
     id="path678"
     transform="scale(0.75)" />
  <path
     style="fill:#ffffff;stroke-width:2.65113"
     d="m 157.13239,338.15315 c 0.84531,-94.85155 2.35076,-174.54512 3.34545,-177.09684 1.64874,-4.22956 7.1125,-4.6377 61.83816,-4.61936 94.67121,0.0317 115.67417,4.30747 138.76999,28.2505 15.97384,16.55979 21.57715,32.47356 21.78397,61.86789 0.15785,22.43648 -0.63673,26.84789 -7.27907,40.41226 -4.10096,8.37457 -10.95143,18.72164 -15.22326,22.99347 -4.27184,4.27184 -7.76698,8.49766 -7.76698,9.3907 0,0.89304 5.66547,4.05222 12.58994,7.02039 27.54328,11.80643 39.45976,27.11801 48.44489,62.24723 5.09841,19.93326 5.15661,21.90702 1.16591,39.53854 -2.31021,10.20686 -7.03267,23.41064 -10.49435,29.34175 -8.148,13.96047 -25.82454,31.55158 -40.12769,39.93378 -14.84222,8.69812 -41.39217,11.09517 -135.92983,12.27236 l -72.65404,0.90467 z m 142.52491,97.68903 c 18.47398,-5.4862 26.43202,-15.90427 26.43202,-34.60292 0,-12.47909 -1.08397,-15.66573 -7.51723,-22.09899 -9.80392,-9.80392 -31.06785,-15.93509 -55.26557,-15.93509 h -19.40231 v 38.26533 38.26534 l 7.29061,1.21231 c 10.47337,1.74158 33.61421,-0.69653 48.46248,-5.10598 z M 284.89337,290.03386 c 10.97934,-5.69777 19.99312,-19.31592 19.97698,-30.18149 -0.006,-3.66806 -2.34467,-10.49836 -5.19827,-15.17844 -8.75309,-14.35566 -38.31718,-25.82929 -50.18645,-19.47705 -5.23792,2.80325 -5.58142,5.12206 -5.58142,37.67718 v 34.69009 l 15.38353,-1.11275 c 8.46094,-0.61201 19.98347,-3.4999 25.60563,-6.41754 z"
     id="path717"
     transform="scale(0.75)" />
  <path
     style="fill:#ffffff;stroke-width:2.65113"
     d="m 157.13239,338.15315 c 0.84531,-94.85155 2.35076,-174.54512 3.34545,-177.09684 1.64874,-4.22956 7.1125,-4.6377 61.83816,-4.61936 94.67121,0.0317 115.67417,4.30747 138.76999,28.2505 15.97384,16.55979 21.57715,32.47356 21.78397,61.86789 0.15785,22.43648 -0.63673,26.84789 -7.27907,40.41226 -4.10096,8.37457 -11.09673,18.86694 -15.54616,23.31637 -4.44943,4.44943 -7.64632,8.48933 -7.10419,8.97755 0.54212,0.48822 7.20493,4.01149 14.80625,7.8295 27.91501,14.02122 38.50562,28.89053 47.16193,66.21582 3.57679,15.42285 3.56149,19.05215 -0.14767,35.04573 -2.27571,9.8127 -6.40709,22.28969 -9.18085,27.72672 -6.44346,12.63023 -26.27771,32.49143 -41.15302,41.20894 -15.12081,8.86138 -41.14253,11.2342 -136.17768,12.41759 l -72.65402,0.90467 z m 141.55333,97.77337 c 19.20997,-5.34185 27.4036,-15.5454 27.4036,-34.1258 0,-25.44891 -15.45802,-35.62545 -57.66214,-37.96096 l -24.52297,-1.35706 v 38.62657 38.62658 l 7.29061,1.17912 c 10.36712,1.67671 31.50764,-0.54391 47.4909,-4.98845 z M 281.0997,290.96181 c 13.19184,-6.66431 23.78566,-20.42658 23.77065,-30.88008 -0.0149,-10.35446 -9.13864,-23.28959 -20.43237,-28.96781 -13.56025,-6.81777 -28.63679,-9.29703 -35.19435,-5.78753 -4.93031,2.63862 -5.33942,5.49117 -5.33942,37.22902 v 34.37145 h 12.69391 c 7.89807,0 17.15493,-2.25363 24.50158,-5.96505 z"
     id="path756"
     transform="scale(0.75)" />
  <path
     style="fill:#ffffff;stroke-width:2.65113"
     d="m 157.12153,338.41188 c 0.83697,-94.99385 2.34146,-174.80385 3.34331,-177.35557 1.66044,-4.22918 7.13044,-4.6377 61.85116,-4.61936 94.67121,0.0317 115.67417,4.30747 138.76999,28.2505 15.97384,16.55979 21.57715,32.47356 21.78397,61.86789 0.1575,22.3851 -0.64471,26.86417 -7.21405,40.27936 -4.06519,8.30147 -10.95076,18.90405 -15.30125,23.56127 -4.3505,4.65722 -7.57665,8.75692 -7.16922,9.11045 0.40743,0.35352 6.96003,3.76659 14.56135,7.5846 27.91501,14.02122 38.50562,28.89053 47.16193,66.21582 3.57679,15.42285 3.56149,19.05215 -0.14767,35.04573 -2.27571,9.8127 -6.38915,22.25451 -9.14098,27.64856 -6.71152,13.15566 -25.41656,32.04154 -40.47515,40.86647 -15.73431,9.22093 -39.06762,11.44725 -136.89328,13.06149 l -72.65188,1.19887 z m 141.25364,97.54754 c 17.73662,-4.85086 25.48646,-13.387 27.06455,-29.81057 2.67877,-27.87844 -13.78201,-40.1222 -56.97883,-42.38167 l -24.55668,-1.28448 v 38.63469 38.63468 l 8.61618,0.995 c 12.08139,1.39513 30.14344,-0.49072 45.85478,-4.78765 z M 274.26783,293.98767 c 19.0945,-5.30123 33.47859,-25.04717 29.57517,-40.59966 -4.23932,-16.8908 -38.75564,-35.15596 -53.62908,-28.37917 -6.1753,2.81365 -6.30971,3.61031 -6.30971,37.39646 v 34.52156 l 9.94174,-0.0148 c 5.46797,-0.008 14.65781,-1.32411 20.42188,-2.9244 z"
     id="path795"
     transform="scale(0.75)" />
  <path
     style="fill:#ffffff;stroke-width:2.65113"
     d="m 157.11265,338.47062 c 0.8273,-95.02616 2.32983,-174.86259 3.33895,-177.41431 1.67236,-4.22879 7.14869,-4.6377 61.8644,-4.61936 94.67121,0.0317 115.67417,4.30747 138.76999,28.2505 15.97384,16.55979 21.57715,32.47356 21.78397,61.86789 0.15867,22.55319 -0.61806,26.8098 -7.4311,40.72299 -4.18457,8.54548 -10.9689,19.36474 -15.07628,24.04279 l -7.46798,8.50555 14.15094,6.94027 c 28.32157,13.8902 39.15216,28.97872 47.91121,66.747 3.60888,15.5612 3.6119,19.249 0.0285,34.70051 -2.20526,9.5089 -6.34031,21.85756 -9.18901,27.44145 -6.87069,13.46768 -25.45009,32.30323 -40.65127,41.2117 -15.69466,9.19768 -38.76844,11.40825 -136.88892,13.11454 l -72.64755,1.26329 z m 148.24216,94.39628 c 19.10824,-8.57986 26.48083,-29.65041 16.8746,-48.22682 -6.5526,-12.67133 -31.34671,-21.25115 -61.75562,-21.37009 l -16.56958,-0.0648 v 38.75765 38.75765 l 24.52297,-1.14184 c 17.24762,-0.80311 28.20314,-2.7943 36.92763,-6.71174 z M 282.4344,289.93413 c 22.93174,-11.90051 27.99664,-33.33857 11.81971,-50.02892 -11.29329,-11.65172 -34.17489,-19.39131 -44.04019,-14.89637 -6.17973,2.81567 -6.30971,3.59283 -6.30971,37.72475 v 34.84985 l 14.1575,-1.17405 c 7.78663,-0.64573 18.75434,-3.55959 24.37269,-6.47526 z"
     id="path834"
     transform="scale(0.75)" />
  <path
     style="fill:#ffffff;stroke-width:2.65113"
     d="m 156.76246,385.0973 c 0.19009,-69.63652 1.08485,-149.27905 1.98835,-176.98338 l 1.64272,-50.37153 60.97605,-0.74843 c 93.22365,-1.14426 116.31389,3.43251 139.71641,27.69349 15.95164,16.53678 21.54904,32.46146 21.74607,61.86789 0.18647,27.82927 -4.50636,42.44009 -19.74777,61.48338 -4.30788,5.38246 -7.83251,10.43265 -7.83251,11.22265 0,0.79 5.92101,4.43677 13.1578,8.10392 27.31568,13.84191 37.90713,28.89351 46.54717,66.14865 3.60888,15.5612 3.6119,19.249 0.0285,34.70051 -5.4382,23.44908 -12.76444,36.87874 -28.45639,52.16318 -26.25202,25.57026 -34.86108,27.20789 -156.54307,29.77776 l -73.56893,1.55378 z m 148.90383,47.54913 c 9.53913,-4.21962 13.60434,-7.88227 16.53587,-14.89842 13.14376,-31.45743 -6.85964,-51.02381 -55.10054,-53.89678 l -23.19741,-1.38151 v 39.17039 39.1704 l 24.55668,-1.28447 c 16.94889,-0.88654 28.47532,-3.01789 37.2054,-6.87961 z M 282.21695,290.1824 c 19.3939,-9.203 26.88224,-28.6634 16.78766,-43.62706 -11.53559,-17.09972 -45.81096,-29.14018 -52.56302,-18.46465 -1.35091,2.13588 -2.47446,18.66469 -2.49679,36.7307 l -0.0406,32.84727 14.40034,-1.48624 c 7.92019,-0.81744 18.68077,-3.51745 23.9124,-6.00002 z"
     id="path873"
     transform="scale(0.75)" />
  <path
     style="fill:#ffffff;stroke-width:2.65113"
     d="m 156.75526,383.93839 c 0.18614,-70.45725 1.08089,-150.17477 1.98835,-177.15004 l 1.64992,-49.04596 75.55728,0.0482 c 89.19745,0.0568 97.25338,1.58601 120.55682,22.88404 19.62144,17.93289 26.11152,33.81743 26.37585,64.55518 0.23591,27.43166 -4.33378,42.4301 -18.63635,61.16749 -4.94744,6.4815 -8.99535,12.35063 -8.99535,13.04251 0,0.69188 5.79498,4.1945 12.87773,7.7836 29.24805,14.82111 40.26304,31.14403 48.18835,71.40946 2.94016,14.93785 -1.76544,39.85948 -10.911,57.78625 -7.18642,14.08653 -27.79934,34.64633 -41.99842,41.89018 -14.9969,7.65082 -39.59543,9.90633 -130.77155,11.99073 l -76.22006,1.74248 z m 148.89624,48.46459 c 30.47921,-14.75474 25.61366,-54.00224 -7.92055,-63.89027 -5.54568,-1.63523 -19.92538,-3.66654 -31.9549,-4.51403 l -21.87184,-1.54089 v 39.17635 39.17637 l 24.8779,-1.30128 c 18.15947,-0.94987 28.11628,-2.86895 36.86939,-7.10625 z M 282.92793,289.35265 c 27.79908,-14.18203 26.81349,-43.33775 -1.96203,-58.04132 -13.92164,-7.11361 -33.03602,-8.06873 -35.45248,-1.77152 -0.88507,2.30644 -1.60921,18.57897 -1.60921,36.16119 v 31.96766 l 14.24293,-1.47 c 7.83361,-0.8085 18.98497,-3.8892 24.78079,-6.84601 z"
     id="path912"
     transform="scale(0.75)" />
  <path
     style="fill:#ffffff;stroke-width:2.65113"
     d="m 156.78359,378.75185 c 0.20171,-73.43714 1.09647,-153.20674 1.98835,-177.26577 l 1.62159,-43.74369 75.55728,0.0849 c 89.89639,0.10096 97.15008,1.4549 120.08265,22.41398 20.13252,18.39998 26.58366,34.01451 26.85002,64.98854 0.23591,27.43166 -4.33378,42.4301 -18.63635,61.16749 -4.94744,6.4815 -8.99535,12.35063 -8.99535,13.04251 0,0.69188 6.2633,4.38879 13.91845,8.21535 25.90492,12.94906 37.21441,28.6702 45.62093,63.41697 4.14064,17.11453 4.16766,20.00855 0.3408,36.50959 -5.49922,23.71218 -12.63448,37.09372 -27.94034,52.39958 -25.71792,25.71793 -35.34641,27.61606 -154.55473,30.46873 l -76.22006,1.82395 z m 135.84742,57.58623 c 10.46072,-2.46097 18.15523,-6.2347 23.39399,-11.47347 14.47455,-14.47454 12.07484,-39.1018 -4.89349,-50.21987 -8.66005,-5.67428 -35.05896,-11.31187 -53.30886,-11.38431 l -13.91844,-0.0553 v 38.44142 38.44143 l 16.56958,-0.0414 c 9.11326,-0.0239 23.58402,-1.69161 32.15722,-3.70854 z m -8.26618,-148.07301 c 17.57156,-9.87577 23.50055,-31.1782 12.55171,-45.0974 -10.87314,-13.82296 -41.61599,-22.85502 -49.83097,-14.64003 -2.13335,2.13334 -3.18136,14.04374 -3.18136,36.1553 v 32.97394 l 15.01495,-1.76471 c 8.25823,-0.97059 19.70878,-4.40279 25.44567,-7.6271 z"
     id="path951"
     transform="scale(0.75)" />
  <path
     style="fill:#ffffff;stroke-width:2.65113"
     d="m 156.77586,377.47002 c 0.19747,-74.19026 1.09223,-153.97953 1.98835,-177.3095 l 1.62932,-42.41813 75.55728,0.0849 c 93.40143,0.1049 98.57486,1.19505 123.23757,25.96871 19.25658,19.34321 23.90029,31.7946 23.90029,64.08495 0,24.56514 -5.16108,40.59396 -18.84154,58.51635 -4.94744,6.4815 -8.99535,12.35355 -8.99535,13.04901 0,0.69545 6.85981,4.74793 15.24401,9.00551 18.8936,9.59435 27.64472,18.65897 36.11087,37.40453 10.99226,24.33881 13.50468,43.52468 8.31987,63.53352 -6.02684,23.25836 -12.85242,35.70893 -27.73491,50.59143 -25.72031,25.72031 -35.52936,27.65837 -154.55473,30.53686 l -76.22006,1.84328 z m 147.32024,54.34159 c 21.55216,-10.6874 27.77065,-33.316 13.97508,-50.85423 -6.95499,-8.84184 -25.35971,-14.78281 -52.18357,-16.84465 l -21.9834,-1.68978 v 39.20026 39.20027 l 23.73881,-1.35354 c 17.67951,-1.00804 26.98412,-2.9628 36.45308,-7.65833 z M 272.33596,292.92156 c 25.67159,-7.62365 37.42746,-30.99007 24.63204,-48.95958 -11.02911,-15.48895 -44.45356,-24.44812 -50.31938,-13.48772 -1.50943,2.82038 -2.74441,18.92601 -2.74441,35.79029 v 30.66231 h 7.47221 c 4.10972,0 13.54151,-1.80239 20.95954,-4.0053 z"
     id="path990"
     transform="scale(0.75)" />
  <path
     style="fill:#ffffff;stroke-width:2.65113"
     d="m 156.75909,374.85195 c 0.18825,-75.66657 1.083,-155.47072 1.98835,-177.34256 l 1.64609,-39.767 76.88285,0.0887 c 93.07101,0.10741 96.98148,0.94594 122.12429,26.18736 19.02634,19.10097 23.688,31.66872 23.688,63.86244 0,24.31403 -4.6464,38.9457 -18.59982,58.57149 l -9.14348,12.8605 14.64521,8.3006 c 27.3996,15.52953 37.39607,29.87501 45.34453,65.07188 3.82076,16.91888 3.79489,19.80718 -0.32452,36.20797 -5.93764,23.63989 -15.85306,41.24442 -30.507,54.16429 -26.17554,23.07805 -35.10063,24.72112 -149.21556,27.47 l -78.8712,1.89988 z m 147.71994,56.77509 c 22.63477,-11.23404 27.90396,-36.72978 10.87794,-52.63446 -8.89159,-8.30599 -25.12382,-12.99087 -52.23205,-15.075 l -19.22071,-1.47772 v 39.2165 39.21651 l 24.12175,-1.56277 c 17.50305,-1.13399 27.5053,-3.24212 36.45307,-7.68306 z M 268.29669,293.91766 c 18.41929,-3.9453 33.9373,-18.49529 33.92253,-31.80641 -0.0206,-18.53821 -16.0892,-32.86622 -40.53631,-36.14527 -15.90792,-2.1337 -17.7787,2.03894 -17.7787,39.654 0,35.59912 -1.51112,33.84608 24.39248,28.29768 z"
     id="path1029"
     transform="scale(0.75)" />
  <path
     style="fill:#ff6600;stroke-width:2.65113"
     d="m 481.18058,511.54924 c -17.87745,-6.92857 -25.36146,-12.87344 -32.66629,-25.94823 -8.47234,-15.16449 -10.26937,-35.94459 -4.58771,-53.05046 7.6221,-22.94802 32.34344,-40.22948 57.44508,-40.15701 22.43928,0.0648 52.37522,23.57558 58.00558,45.55588 1.60857,6.27966 3.4698,13.02601 4.13607,14.99189 1.32085,3.89729 -4.52551,22.82611 -10.79415,34.94833 -4.58585,8.86806 -22.94861,22.15209 -34.42272,24.90216 -16.64857,3.99026 -24.27243,3.73503 -37.11586,-1.24256 z"
     id="path1142"
     transform="scale(0.75)" />
  <path
     style="fill:#ff6600;stroke-width:2.65113"
     d="m 479.92109,509.63514 c -16.32775,-6.32295 -30.14488,-20.74299 -34.38428,-35.88465 -11.1636,-39.87247 12.42417,-75.87648 51.19683,-78.14603 14.60594,-0.85495 17.74426,-0.0547 30.84176,7.86422 16.81903,10.16903 30.41638,28.45672 33.13864,44.56965 3.52852,20.88515 -11.82278,48.63072 -32.95232,59.55723 -12.35837,6.39076 -34.2,7.32193 -47.84063,2.03958 z"
     id="path1181"
     transform="scale(0.75)" />
  <path
     style="fill:#ff6600;stroke-width:2.65113"
     d="m 479.92109,509.64381 c -16.33335,-6.33705 -30.1461,-20.75601 -34.38428,-35.89332 -11.1636,-39.87247 12.42417,-75.87648 51.19683,-78.14603 14.60594,-0.85495 17.74426,-0.0547 30.84176,7.86422 27.54699,16.65531 39.18972,43.38587 30.0689,69.03524 -11.58817,32.588 -46.48084,49.2614 -77.72321,37.13989 z"
     id="path1220"
     transform="scale(0.75)" />
  <path
     style="fill:#ff6600;stroke-width:2.65113"
     d="m 480.18641,509.95959 c -44.7312,-16.41367 -51.0665,-79.41938 -10.67354,-106.15018 34.11884,-22.57878 83.11302,1.50887 91.24581,44.86037 3.80978,20.30786 -11.87351,48.00242 -33.52359,59.19811 -11.95559,6.18248 -33.31272,7.13198 -47.04868,2.0917 z"
     id="path1259"
     transform="scale(0.75)" />
  <path
     style="fill:#ff6600;stroke-width:2.65113"
     d="m 480.18641,509.95959 c -44.7312,-16.41367 -51.0665,-79.41938 -10.67354,-106.15018 15.28095,-10.11245 37.72337,-11.61175 53.33719,-3.56325 21.08297,10.86768 33.94541,27.29788 37.90862,48.42362 3.80978,20.30786 -11.87351,48.00242 -33.52359,59.19811 -11.95559,6.18248 -33.31272,7.13198 -47.04868,2.0917 z"
     id="path1298"
     transform="scale(0.75)" />
</svg>
